<svg width="415" height="361" viewBox="0 0 415 361" fill="none" xmlns="http://www.w3.org/2000/svg">
<path d="M66.6283 171.287C66.6283 171.287 99.8161 177.474 123.742 144.992C123.742 144.992 103.675 125.271 89.7825 129.525C75.89 133.779 66.6283 158.913 66.6283 158.913V171.287Z" fill="#6C63FF"/>
<path opacity="0.1" d="M66.6283 171.287C66.6283 171.287 99.8161 177.474 123.742 144.992C123.742 144.992 103.675 125.271 89.7825 129.525C75.89 133.779 66.6283 158.913 66.6283 158.913V171.287Z" fill="black"/>
<path d="M81.6785 144.992L115.638 214.983L123.742 210.729L88.6247 144.992H81.6785Z" fill="#504F60"/>
<path d="M123.742 144.993C117.592 145.054 111.472 145.871 105.52 147.425C97.3073 149.596 89.4989 153.083 82.3963 157.749C72.1274 164.451 66.6283 171.287 66.6283 171.287C42.1426 128.164 47.6186 50.3704 48.0779 44.427V44.4231C48.0856 44.3303 48.0894 44.253 48.0933 44.1989C48.101 44.1099 48.1049 44.0674 48.1049 44.0674C64.3128 44.0674 123.742 144.993 123.742 144.993Z" fill="#6C63FF"/>
<path d="M293.5 162C340.3 162 394 177 415 184.5V360.5H0.5V156C34 156 117 191.5 184.5 191.5C252 191.5 235 162 293.5 162Z" fill="#FDDAA7"/>
<path d="M268.842 257.132L259.58 259.065C259.58 259.065 222.919 239.344 217.903 245.918" fill="#EFC485"/>
<path d="M259.58 200.676C259.58 200.676 200.151 188.688 175.453 202.996L259.58 200.676Z" fill="#EFC485"/>
<path opacity="0.1" d="M214.866 222.217C214.866 222.217 200.008 216.131 200.658 219.608C201.309 223.086 208.901 226.564 208.901 226.564C208.901 226.564 193.934 225.259 194.585 230.476C194.585 230.476 211.721 230.041 211.07 233.953C210.419 237.866 211.07 243.082 213.89 241.995C216.71 240.908 218.445 228.302 226.037 234.388C233.628 240.474 232.544 228.085 223.217 226.998C223.217 226.998 228.206 223.303 227.772 221.565C227.338 219.826 214.866 222.217 214.866 222.217Z" fill="black"/>
<path d="M214.649 221.565C214.649 221.565 199.791 215.479 200.442 218.956C201.092 222.434 208.684 225.911 208.684 225.911C208.684 225.911 193.717 224.607 194.368 229.824C194.368 229.824 211.504 229.389 210.853 233.301C210.202 237.213 210.853 242.43 213.673 241.343C216.493 240.256 218.228 227.65 225.82 233.736C233.411 239.822 232.327 227.433 223 226.346C223 226.346 227.989 222.651 227.555 220.912C227.121 219.174 214.649 221.565 214.649 221.565Z" fill="#F89898"/>
<path d="M330.201 233.544C330.201 233.544 308.976 226.97 307.047 228.13L330.201 233.544Z" fill="#EFC485"/>
<path d="M165.42 239.344C165.42 239.344 193.977 231.224 204.782 237.411L165.42 239.344Z" fill="#EFC485"/>
<path d="M212.693 206.282C212.693 206.282 220.411 183.468 235.847 188.108C251.283 192.748 262.861 204.736 262.861 204.736L212.693 208.603V206.282Z" fill="#FBD092"/>
<path d="M44.8247 231.804C44.8247 231.804 56.7877 236.831 76.8548 234.897C96.9218 232.964 112.744 244.951 112.744 244.951" fill="#CCB2BB"/>
<g opacity="0.05">
<path opacity="0.05" d="M93.412 139.101C93.5071 138.941 93.5512 138.756 93.5383 138.571C93.4817 138.743 93.4395 138.921 93.412 139.101Z" fill="url(#paint0_linear)"/>
</g>
<g opacity="0.05">
<path opacity="0.05" d="M93.412 138.835C93.5071 138.675 93.5512 138.49 93.5383 138.304C93.4817 138.477 93.4395 138.655 93.412 138.835Z" fill="url(#paint1_linear)"/>
</g>
<g opacity="0.05">
<path opacity="0.05" d="M116.221 205.641C115.384 206 113.392 207.881 110.807 210.579C109.987 205.163 109.455 200.279 109.799 198.247C109.828 197.944 109.933 197.652 110.104 197.399C111.655 197.293 114.805 201.179 117.322 204.692C116.625 205.252 116.221 205.641 116.221 205.641Z" fill="url(#paint2_linear)"/>
</g>
<path d="M157.459 229.347C157.459 229.347 170.984 256.192 174.366 257.235C177.747 258.277 180.088 256.713 180.088 256.713C180.088 256.713 208.179 251.501 202.977 257.495C197.775 263.49 152.257 259.841 152.257 259.841L140.813 234.038L157.459 229.347Z" fill="#EF91A3"/>
<path opacity="0.1" d="M118.704 229.868C118.704 229.868 140.553 215.273 146.535 215.273C146.535 215.273 155.378 212.406 160.58 232.214C160.58 232.214 142.633 235.342 142.893 243.942L139.512 236.645L124.946 252.804L107.26 240.815L118.704 229.868Z" fill="black"/>
<path d="M118.704 229.347C118.704 229.347 140.553 214.752 146.535 214.752C146.535 214.752 155.378 211.885 160.58 231.693C160.58 231.693 142.633 234.82 142.893 243.421L139.512 236.123L124.946 252.282L107.26 240.294L118.704 229.347Z" fill="#5D526E"/>
<path d="M142.633 222.05C141.333 228.305 134.57 229.347 134.57 229.347L124.946 223.353C124.946 223.353 123.589 214.374 122.442 208.901C122.002 206.797 121.594 205.21 121.305 204.848C120.265 203.545 136.651 203.805 136.651 203.805C137.801 205.753 138.848 207.76 139.788 209.818C141.572 213.73 143.328 218.708 142.633 222.05Z" fill="#EF91A3"/>
<path d="M101.017 174.876L95.5549 200.938L82.2898 197.55C82.2898 197.55 70.065 187.907 73.7064 181.913C74.8977 179.953 75.5037 177.101 75.782 174.154C76.3516 168.078 75.5271 161.583 75.5271 161.583C75.5271 161.583 90.0928 157.674 87.2317 168.36C86.056 172.749 88.1707 174.631 91.0708 175.326C95.235 176.325 101.017 174.876 101.017 174.876Z" fill="#EF91A3"/>
<path opacity="0.1" d="M91.0708 175.326C89.0013 176.404 86.7027 176.965 84.3706 176.961C81.1583 176.961 78.0657 174.946 75.6571 173.181C75.9906 169.32 75.9471 165.436 75.5271 161.583C75.5271 161.583 90.0928 157.674 87.2317 168.36C86.056 172.749 88.1706 174.631 91.0708 175.326Z" fill="black"/>
<path d="M84.3705 176.439C92.4149 176.439 98.9362 169.905 98.9362 161.844C98.9362 153.784 92.4149 147.249 84.3705 147.249C76.3261 147.249 69.8048 153.784 69.8048 161.844C69.8048 169.905 76.3261 176.439 84.3705 176.439Z" fill="#EF91A3"/>
<path opacity="0.1" d="M83.2815 192.29L87.2316 197.811L89.4793 189.647C90.3473 186.38 90.8052 183.018 90.8421 179.638C90.8609 178.204 91.3264 176.813 92.1735 175.657C96.2268 173.442 99.236 172.273 104.344 172.798C109.405 173.352 114.212 175.304 118.23 178.437C133.413 190.121 140.552 209.539 140.552 209.539C140.552 209.539 119.744 205.369 120.785 210.061C120.785 210.061 111.681 195.465 109.6 197.811C107.52 200.157 114.022 231.171 114.022 231.171L71.3654 234.299L60.181 204.587L60.7012 182.434C60.7012 182.434 71.7556 177.352 74.0965 177.352C74.9158 177.352 74.7907 177.066 75.1369 178.394C76.4711 183.513 80.2048 187.991 83.2815 192.29Z" fill="black"/>
<path opacity="0.1" d="M139.788 209.818C136.17 209.164 125.922 207.493 122.442 208.901C122.002 206.797 121.594 205.21 121.305 204.848C120.265 203.545 136.651 203.805 136.651 203.805C137.801 205.753 138.848 207.76 139.788 209.818Z" fill="black"/>
<path d="M83.8017 192.03L87.7519 197.55L89.9996 189.386C90.8676 186.119 91.3254 182.757 91.3624 179.377C91.3812 177.944 91.8467 176.552 92.6938 175.397C96.7471 173.181 99.7563 172.012 104.864 172.538C109.925 173.091 114.733 175.043 118.75 178.176C133.933 189.86 141.073 209.279 141.073 209.279C141.073 209.279 120.265 205.108 121.305 209.8C121.305 209.8 112.201 195.205 110.121 197.55C108.04 199.896 114.542 230.911 114.542 230.911L71.8857 234.038L60.7013 204.327L61.2215 182.173C61.2215 182.173 72.2758 177.091 74.6167 177.091C75.436 177.091 75.311 176.805 75.6571 178.133C76.9914 183.252 80.7251 187.73 83.8017 192.03Z" fill="#DFECFB"/>
<path opacity="0.1" d="M74.2581 172.155C72.7964 172.416 71.0941 171.922 70.3815 170.617C70.0998 169.969 69.9 169.288 69.787 168.591C69.0316 165.622 66.5611 163.404 65.3444 160.593C63.295 155.858 65.0944 150.426 66.8982 145.591C67.7846 143.216 68.7371 140.741 70.6288 139.056C73.536 136.467 77.8707 136.405 81.7271 136.914C83.2894 137.121 84.8602 137.398 86.4312 137.273C88.0021 137.149 89.611 136.565 90.6053 135.34C91.4426 135.884 91.1326 137.144 90.9621 138.129C90.7937 139.102 90.9326 140.241 91.7155 140.84C92.4985 141.438 93.9596 140.945 93.8941 139.96C93.1899 142.048 94.7444 144.356 96.7468 145.266C97.4114 145.562 98.1133 145.765 98.8329 145.87C100.04 146.044 101.143 146.652 101.935 147.582C102.727 148.511 103.154 149.697 103.136 150.919L103.136 150.942C103.156 151.213 103.095 151.484 102.961 151.721C102.794 151.909 102.581 152.051 102.343 152.132C100.322 153.059 98.6706 154.638 97.6526 156.617C97.1137 157.673 96.7077 158.896 95.7139 159.539C94.4922 160.33 92.8935 159.937 91.4433 160.049C90.2428 160.163 89.1037 160.634 88.1717 161.401C87.2397 162.168 86.5572 163.196 86.2115 164.354C85.8745 165.561 85.9194 166.876 85.1657 167.949C85.0056 168.191 84.7959 168.396 84.5505 168.551C84.3051 168.706 84.0297 168.807 83.7424 168.848C82.6146 168.97 82.0956 167.956 81.2863 167.433C79.3837 166.203 78.1703 167.827 77.5694 169.358C76.9092 171.041 76.4482 171.764 74.2581 172.155Z" fill="black"/>
<path d="M74.2581 171.894C72.7964 172.156 71.0941 171.661 70.3815 170.356C70.0998 169.708 69.9 169.028 69.787 168.33C69.0316 165.361 66.5611 163.144 65.3444 160.333C63.295 155.598 65.0944 150.165 66.8982 145.331C67.7846 142.955 68.7371 140.48 70.6288 138.795C73.536 136.206 77.8707 136.144 81.7271 136.654C83.2894 136.86 84.8602 137.137 86.4312 137.013C88.0021 136.888 89.611 136.304 90.6053 135.079C91.4426 135.624 91.1326 136.883 90.9621 137.869C90.7937 138.841 90.9326 139.98 91.7155 140.579C92.4985 141.178 93.9596 140.684 93.8941 139.7C93.1899 141.787 94.7444 144.095 96.7468 145.006C97.4114 145.301 98.1133 145.505 98.8329 145.609C100.04 145.783 101.143 146.392 101.935 147.321C102.727 148.25 103.154 149.437 103.136 150.658L103.136 150.681C103.156 150.952 103.095 151.224 102.961 151.46C102.794 151.648 102.581 151.79 102.343 151.871C100.322 152.798 98.6706 154.377 97.6526 156.356C97.1137 157.412 96.7077 158.635 95.7139 159.279C94.4922 160.07 92.8935 159.676 91.4433 159.788C90.2428 159.903 89.1037 160.373 88.1717 161.14C87.2397 161.907 86.5572 162.935 86.2115 164.093C85.8745 165.3 85.9194 166.615 85.1657 167.688C85.0056 167.93 84.7959 168.136 84.5505 168.291C84.3051 168.446 84.0297 168.547 83.7424 168.587C82.6146 168.709 82.0956 167.695 81.2863 167.172C79.3837 165.942 78.1703 167.566 77.5694 169.097C76.9092 170.78 76.4482 171.503 74.2581 171.894Z" fill="#572142"/>
<g opacity="0.05">
<path opacity="0.05" d="M115.629 177.916C129.672 188.722 136.833 206.143 137.829 208.699C139.768 209.017 141.073 209.279 141.073 209.279C141.073 209.279 133.933 189.86 118.75 178.176C114.733 175.043 109.925 173.091 104.864 172.538C104.156 172.465 103.491 172.428 102.854 172.418C107.511 173.129 111.908 175.021 115.629 177.916Z" fill="black"/>
<path opacity="0.05" d="M72.5358 177.873C73.87 182.992 77.6037 187.469 80.6803 191.769L84.6305 197.29L85.4459 194.328L83.8015 192.03C80.7249 187.73 76.9912 183.252 75.6569 178.133C75.3108 176.805 75.4359 177.091 74.6166 177.091C73.8796 177.159 73.1544 177.323 72.459 177.576C72.4821 177.666 72.5069 177.762 72.5358 177.873Z" fill="black"/>
<path opacity="0.05" d="M119.92 207.662C120.765 208.935 121.305 209.8 121.305 209.8C120.851 207.753 124.556 207.393 128.876 207.638C125.486 207.277 121.967 207.122 119.92 207.662Z" fill="black"/>
<path opacity="0.05" d="M109.815 198.391C108.585 197.231 107.548 196.671 106.999 197.29C104.919 199.635 111.421 230.65 111.421 230.65L71.7063 233.562L71.8856 234.038L114.542 230.911C114.542 230.911 108.881 203.907 109.815 198.391Z" fill="black"/>
</g>
<path d="M70.4005 260.438C67.9114 262.502 60.8444 267.448 52.118 265.575C43.4202 263.706 50.716 259.528 54.0505 257.899C54.2271 257.813 54.382 257.688 54.5038 257.534C54.6256 257.38 54.711 257.2 54.7538 257.008C54.7965 256.816 54.7955 256.617 54.7508 256.426C54.706 256.234 54.6187 256.056 54.4953 255.903C52.583 253.562 50.3863 251.471 47.9564 249.676C45.8365 248.112 43.2849 245.298 41.0637 242.595V242.592C39.8958 241.177 38.8242 239.796 37.9503 238.636C37.786 238.418 37.694 238.154 37.687 237.881C37.68 237.608 37.7584 237.34 37.9112 237.113C38.064 236.887 38.2836 236.715 38.5392 236.62C38.7949 236.525 39.0737 236.513 39.3366 236.585L56.3889 241.224C56.6559 241.297 56.8928 241.453 57.0651 241.67L62.6703 248.688L70.5904 258.608C70.8051 258.877 70.9056 259.219 70.87 259.562C70.8345 259.904 70.6658 260.219 70.4005 260.438Z" fill="#EF91A3"/>
<path opacity="0.1" d="M62.6703 248.688C48.4402 238.289 43.0691 240.148 41.0637 242.592C39.8958 241.177 38.8242 239.796 37.9503 238.636C37.786 238.418 37.694 238.154 37.687 237.881C37.68 237.608 37.7584 237.34 37.9112 237.113C38.064 236.887 38.2836 236.715 38.5392 236.62C38.7948 236.525 39.0737 236.513 39.3366 236.585L56.3889 241.224C56.6559 241.297 56.8928 241.453 57.0651 241.67L62.6703 248.688Z" fill="black"/>
<path d="M50.8174 216.576C50.8174 216.576 27.9284 209.018 31.5698 224.916C35.2113 240.815 39.8931 244.724 39.8931 244.724C39.8931 244.724 41.1936 232.214 63.3022 248.634L55.4992 236.123L64.6028 224.656L50.8174 216.576Z" fill="#5D526E"/>
<path opacity="0.1" d="M45.3552 202.242C45.3552 202.242 43.2744 213.188 50.8174 226.48C56.7969 237.017 49.7002 241.822 46.5014 243.361C46.0821 243.563 45.6108 243.63 45.1521 243.553C44.6933 243.475 44.2696 243.258 43.939 242.93C41.8318 240.841 37.7919 235.543 40.1532 227.262L41.7138 223.092L33.1304 216.837C33.1304 216.837 30.8082 208.206 31.8393 206.267C32.8703 204.327 41.1936 199.114 41.1936 199.114L45.3552 202.242Z" fill="black"/>
<path d="M45.3552 201.72C45.3552 201.72 43.2744 212.667 50.8174 225.959C56.7969 236.496 49.7002 241.3 46.5014 242.839C46.0821 243.041 45.6108 243.108 45.1521 243.031C44.6933 242.954 44.2696 242.737 43.939 242.409C41.8318 240.32 37.7919 235.022 40.1532 226.741L41.7138 222.571L33.1304 216.316C33.1304 216.316 30.8082 207.685 31.8393 205.745C32.8703 203.805 41.1936 198.593 41.1936 198.593L45.3552 201.72Z" fill="#EF91A3"/>
<path d="M64.3427 180.87C64.3427 180.87 45.6154 191.556 37.8123 198.593C30.0093 205.63 31.5699 207.976 31.5699 207.976C31.5699 207.976 39.1129 193.902 45.6154 206.151C45.6154 206.151 63.8225 192.859 68.7644 198.593C73.7064 204.327 64.3427 180.87 64.3427 180.87Z" fill="#DFECFB"/>
<path d="M57.3199 242.378L72.9259 239.251L71.1052 247.33L59.7959 246.151L57.3199 242.378Z" fill="#5D526E"/>
<path d="M84.3705 207.975L83.8503 213.709L65.123 210.582L59.4007 206.933L50.8174 203.805C51.8297 201.01 51.9882 197.976 51.2726 195.09C50.9482 193.845 50.4443 192.655 49.777 191.556C46.1356 185.561 65.123 188.168 65.123 188.168C64.9171 189.519 64.8214 190.885 64.8369 192.252C64.8759 196.607 66.1062 202.745 72.926 201.72L78.6483 205.109L84.3705 207.975Z" fill="#FFC1CD"/>
<path d="M65.9033 199.896C65.9033 199.896 75.5271 195.726 80.2089 204.327C84.8907 212.927 86.9716 212.406 86.9716 212.406L77.6079 206.412L65.9033 199.896Z" fill="#FFC1CD"/>
<path d="M73.9665 243.421C73.9665 243.421 66.6836 249.416 70.8452 256.974C75.0069 264.532 101.017 263.229 101.017 263.229C101.017 263.229 84.5061 257.013 88.5999 236.143C88.5999 236.143 76.8276 239.512 73.9665 243.421Z" fill="#5F5470"/>
<path d="M108.56 252.282L105.959 262.186L115.063 260.362C115.063 260.362 111.161 252.022 111.681 249.676C112.201 247.33 108.56 252.282 108.56 252.282Z" fill="#5F5470"/>
<path d="M115.843 240.293C115.843 240.293 139.512 242.639 146.015 246.288L150.957 247.852C150.957 247.852 152.777 247.33 156.679 250.719L176.967 255.41L192.573 258.538C192.573 258.538 206.878 261.144 207.919 260.623C208.959 260.101 215.982 264.532 209.219 266.617C202.457 268.702 188.411 265.574 188.411 265.574C188.411 265.574 178.007 264.271 175.666 265.053C173.325 265.835 157.459 263.489 157.459 263.489L141.853 264.532C141.853 264.532 139.252 260.623 132.489 261.926C127.663 262.856 119.261 261.397 114.845 260.485C113.989 260.309 113.206 259.882 112.594 259.258C111.983 258.633 111.57 257.841 111.41 256.981L109.86 248.634L115.843 240.293Z" fill="#FFC1CD"/>
<path opacity="0.05" d="M115.843 240.293C115.843 240.293 139.512 242.639 146.015 246.288L150.957 247.852C150.957 247.852 152.777 247.33 156.679 250.719L176.967 255.41L192.573 258.538C192.573 258.538 206.878 261.144 207.919 260.623C208.959 260.101 215.982 264.532 209.219 266.617C202.457 268.702 188.411 265.574 188.411 265.574C188.411 265.574 178.007 264.271 175.666 265.053C173.325 265.835 157.459 263.489 157.459 263.489L141.853 264.532C141.853 264.532 139.252 260.623 132.489 261.926C127.663 262.856 119.261 261.397 114.845 260.485C113.989 260.309 113.206 259.882 112.594 259.258C111.983 258.633 111.57 257.841 111.41 256.981L109.86 248.634L115.843 240.293Z" fill="black"/>
<path opacity="0.1" d="M64.8369 192.252C62.9998 193.835 60.792 194.926 58.4198 195.423C56.0476 195.919 53.5886 195.805 51.2726 195.09C50.9482 193.845 50.4443 192.655 49.777 191.556C46.1356 185.561 65.123 188.168 65.123 188.168C64.9171 189.519 64.8214 190.885 64.8369 192.252Z" fill="black"/>
<path d="M55.4992 195.205C63.4 195.205 69.8048 188.787 69.8048 180.87C69.8048 172.953 63.4 166.535 55.4992 166.535C47.5984 166.535 41.1936 172.953 41.1936 180.87C41.1936 188.787 47.5984 195.205 55.4992 195.205Z" fill="#FFC1CD"/>
<path opacity="0.1" d="M49.5168 201.981C49.5168 201.981 60.4411 207.976 60.9613 211.885C61.4815 215.794 59.4007 220.486 59.4007 220.486C59.4007 220.486 64.3427 250.198 70.5851 252.283L87.2316 236.124L101.277 229.868C101.277 229.868 92.9538 229.347 92.1735 221.528C91.3932 213.709 93.214 211.103 83.8503 207.454C74.4866 203.806 69.4146 199.505 69.4146 199.505L66.9967 200.116L79.4286 206.672C79.4286 206.672 86.4513 210.843 68.2442 207.715L51.0775 201.46L49.5168 201.981Z" fill="black"/>
<path d="M49.2568 201.46C49.2568 201.46 60.1811 207.454 60.7013 211.364C61.2215 215.273 59.1407 219.964 59.1407 219.964C59.1407 219.964 64.0826 249.676 70.3251 251.761L86.9716 235.602L101.017 229.347C101.017 229.347 92.6938 228.826 91.9135 221.007C91.1332 213.188 92.9539 210.582 83.5903 206.933C74.2266 203.284 69.1546 198.984 69.1546 198.984L66.7367 199.595L79.1685 206.151C79.1685 206.151 86.1913 210.321 67.9842 207.193L50.8175 200.938L49.2568 201.46Z" fill="#FF808C"/>
<path opacity="0.1" d="M53.1583 203.545C53.1583 203.545 42.4941 199.635 45.0951 212.146C47.6961 224.656 61.2214 246.288 61.2214 246.288L92.9538 235.342C92.9538 235.342 102.838 227.783 100.237 227.001C97.6357 226.22 83.8503 231.172 83.8503 231.172L65.123 234.038L60.7012 221.528C60.7012 221.528 64.8629 218.661 63.5623 215.013C63.5493 214.976 63.5362 214.939 63.523 214.903C61.7563 210.046 58.1949 206.054 53.5748 203.754L53.1583 203.545Z" fill="black"/>
<path d="M52.6381 203.024C52.6381 203.024 41.974 199.114 44.575 211.624C47.176 224.135 60.7013 245.767 60.7013 245.767L92.4337 234.82C92.4337 234.82 102.318 227.262 99.7165 226.48C97.1155 225.698 83.3301 230.65 83.3301 230.65L64.6028 233.517L60.1811 221.007C60.1811 221.007 64.3427 218.14 63.0422 214.491C63.0292 214.455 63.0161 214.418 63.0029 214.382C61.2361 209.525 57.6747 205.533 53.0547 203.232L52.6381 203.024Z" fill="#FFC1CD"/>
<path opacity="0.1" d="M53.6323 160.313C52.3971 159.958 51.1092 159.823 49.8274 159.914C48.6206 160.091 47.4509 160.465 46.3648 161.021C44.6163 161.839 42.9424 162.808 41.3623 163.918C40.2996 164.664 39.2584 165.485 38.0324 165.91C36.1935 166.549 34.0661 166.252 32.3719 167.212C29.9975 168.557 29.4668 171.781 29.8174 174.491C30.168 177.201 31.1275 179.902 30.7009 182.601C30.0625 186.641 26.5664 189.51 23.3544 192.034C22.3429 192.829 21.2573 193.762 21.102 195.04C21.0049 195.84 21.2977 196.628 21.5423 197.395C22.8973 201.598 22.8267 206.131 21.3417 210.289C19.8245 214.445 16.8346 217.896 12.9416 219.985C11.4651 220.757 9.67374 221.547 9.32793 223.179C8.8889 225.252 11.1165 226.858 13.0999 227.592C14.718 228.192 16.3912 228.63 18.095 228.9C19.5936 229.137 21.1957 229.23 22.5633 228.572C24.1546 227.806 25.1253 226.18 25.9663 224.625C29.2407 218.569 33.2604 215.6 35.3791 209.047C35.836 207.634 36.5647 205.953 38.0404 205.81C38.9633 205.72 39.7977 206.303 40.5822 206.799C44.3672 209.188 48.3427 206.511 51.8659 203.748C52.6811 203.109 53.3785 202.307 54.286 201.808C56.2139 200.748 59.0217 201.051 60.1774 199.177C60.446 198.682 60.6329 198.148 60.7307 197.594C61.2045 195.556 61.6775 193.416 61.1302 191.397C60.6237 189.528 59.303 187.997 58.5248 186.224C57.7467 184.452 57.7019 182.03 59.2918 180.93C59.7685 180.6 60.342 180.43 60.811 180.089C62.1774 179.096 62.2082 177.112 62.2005 175.421C62.1659 175.002 62.2374 174.582 62.4084 174.199C62.6585 173.835 62.9874 173.533 63.3706 173.314C64.8881 172.272 66.0697 170.81 66.7712 169.106C67.4602 167.243 65.6954 166.4 64.2855 165.353C61.1001 162.987 57.4798 161.274 53.6323 160.313Z" fill="black"/>
<path d="M53.3722 160.052C52.137 159.697 50.8491 159.562 49.5672 159.653C48.3604 159.831 47.1907 160.205 46.1046 160.761C44.3562 161.578 42.6823 162.548 41.1021 163.657C40.0395 164.403 38.9983 165.224 37.7722 165.65C35.9334 166.289 33.806 165.992 32.1117 166.951C29.7374 168.296 29.2067 171.52 29.5573 174.231C29.9079 176.941 30.8673 179.642 30.4408 182.341C29.8024 186.38 26.3063 189.25 23.0942 191.773C22.0828 192.568 20.9971 193.501 20.8419 194.779C20.7447 195.579 21.0376 196.367 21.2822 197.135C22.6371 201.337 22.5666 205.871 21.0816 210.029C19.5644 214.184 16.5744 217.635 12.6814 219.724C11.205 220.497 9.4136 221.286 9.0678 222.919C8.62877 224.992 10.8563 226.597 12.8398 227.332C14.4579 227.931 16.131 228.369 17.8349 228.639C19.3334 228.877 20.9356 228.97 22.3031 228.311C23.8945 227.545 24.8651 225.92 25.7061 224.364C28.9806 218.308 33.0003 215.339 35.1189 208.787C35.5759 207.373 36.3046 205.692 37.7802 205.549C38.7032 205.46 39.5375 206.043 40.3221 206.538C44.1071 208.928 48.0826 206.25 51.6057 203.488C52.421 202.848 53.1184 202.046 54.0259 201.547C55.9538 200.488 58.7615 200.791 59.9172 198.916C60.1858 198.422 60.3727 197.887 60.4706 197.333C60.9443 195.295 61.4174 193.156 60.87 191.136C60.3635 189.268 59.0429 187.736 58.2647 185.964C57.4865 184.192 57.4418 181.77 59.0317 180.67C59.5084 180.34 60.0819 180.169 60.5508 179.828C61.9172 178.835 61.948 176.851 61.9404 175.16C61.9057 174.742 61.9773 174.322 62.1483 173.939C62.3983 173.575 62.7273 173.272 63.1105 173.054C64.6279 172.012 65.8096 170.549 66.511 168.845C67.2001 166.982 65.4352 166.139 64.0253 165.093C60.8399 162.726 57.2197 161.014 53.3722 160.052Z" fill="#B46D86"/>
<path d="M174.496 274.306C167.434 275.799 146.829 275.166 143.804 272.742C139.174 269.03 140.313 265.733 140.62 265.053H140.552C140.552 265.053 143.153 258.798 140.552 254.107C140.552 254.107 140.292 248.373 134.83 243.942C129.368 239.512 123.386 227.001 123.386 227.001L120.265 233.517C120.265 233.517 115.572 247.823 110.706 254.175C109.732 255.435 109.069 256.907 108.771 258.472C108.448 260.195 107.335 262.366 103.878 262.968L103.699 262.999C101.278 263.405 98.7926 263.11 96.5336 262.149C94.2747 261.189 92.3362 259.602 90.9458 257.576C88.6179 254.217 85.9811 249.555 85.3847 245.015C85.1903 243.487 85.3169 241.936 85.7563 240.46C86.1958 238.985 86.9384 237.617 87.9364 236.447L87.9651 236.413C93.5677 229.78 112.992 206.964 116.103 205.63C116.103 205.63 130.148 192.077 135.611 210.321C141.073 228.565 142.893 234.038 142.893 234.038C142.893 234.038 149.425 245.728 151.217 249.676C153.069 253.758 160.773 263.938 161.556 264.967C162.271 265.457 169.156 270.135 171.375 270.135C172.355 270.135 179.583 273.229 174.496 274.306Z" fill="#FFC1CD"/>
<g opacity="0.05">
<path opacity="0.05" d="M141.617 257.779C141.838 255.754 141.717 253.341 140.552 251.24C140.552 251.24 140.292 245.506 134.83 241.075C129.368 236.645 123.386 224.135 123.386 224.135L120.264 230.65C120.264 230.65 115.572 244.956 110.706 251.308C109.732 252.568 109.069 254.04 108.771 255.605C108.448 257.328 107.335 259.499 103.878 260.101L103.699 260.133C101.278 260.538 98.7926 260.243 96.5336 259.283C94.2747 258.322 92.3362 256.735 90.9458 254.709C88.6437 251.388 86.0429 246.792 85.4086 242.299C85.2639 243.285 85.2558 244.287 85.3847 245.275C85.9811 249.816 88.6179 254.478 90.9458 257.836C92.3362 259.863 94.2747 261.449 96.5336 262.41C98.7926 263.371 101.278 263.666 103.699 263.26L103.878 263.229C107.335 262.627 108.448 260.456 108.771 258.733C109.069 257.168 109.732 255.695 110.706 254.435C115.572 248.084 120.264 233.778 120.264 233.778L123.386 227.262C123.386 227.262 129.368 239.772 134.83 244.203C140.292 248.634 140.552 254.368 140.552 254.368C141.124 255.425 141.485 256.584 141.617 257.779Z" fill="black"/>
</g>
<path opacity="0.05" d="M73.8364 224.004C73.8364 224.004 85.0208 223.744 84.2405 220.095L73.8364 224.004Z" fill="black"/>
<path d="M257.265 237.024C257.265 237.024 274.631 225.037 291.61 229.29C308.59 233.544 295.855 248.238 295.855 248.238L257.265 237.024Z" fill="#FBD092"/>
<path d="M250.319 229.29C250.319 229.29 267.298 221.943 278.876 229.677C290.453 237.411 313.607 241.278 313.607 241.278" fill="#EFC485"/>
<defs>
<linearGradient id="paint0_linear" x1="93.4762" y1="139.101" x2="93.4762" y2="138.571" gradientUnits="userSpaceOnUse">
<stop stop-color="#808080" stop-opacity="0.25"/>
<stop offset="0.53514" stop-color="#808080" stop-opacity="0.12"/>
<stop offset="1" stop-color="#808080" stop-opacity="0.1"/>
</linearGradient>
<linearGradient id="paint1_linear" x1="132.373" y1="339.611" x2="132.373" y2="338.884" gradientUnits="userSpaceOnUse">
<stop stop-color="#808080" stop-opacity="0.25"/>
<stop offset="0.53514" stop-color="#808080" stop-opacity="0.12"/>
<stop offset="1" stop-color="#808080" stop-opacity="0.1"/>
</linearGradient>
<linearGradient id="paint2_linear" x1="2819.32" y1="7648.97" x2="2819.32" y2="7199.61" gradientUnits="userSpaceOnUse">
<stop stop-color="#808080" stop-opacity="0.25"/>
<stop offset="0.53514" stop-color="#808080" stop-opacity="0.12"/>
<stop offset="1" stop-color="#808080" stop-opacity="0.1"/>
</linearGradient>
</defs>
</svg>
