<svg width="133" height="133" viewBox="0 0 133 133" fill="none" xmlns="http://www.w3.org/2000/svg">
<path d="M66.1926 132.385C102.75 132.385 132.385 102.75 132.385 66.1926C132.385 29.6354 102.75 0 66.1926 0C29.6355 0 0 29.6354 0 66.1926C0 102.75 29.6355 132.385 66.1926 132.385Z" fill="#E6E6E6"/>
<path d="M59.6821 28.2132C63.8772 28.2132 67.278 24.8124 67.278 20.6174C67.278 16.4223 63.8772 13.0215 59.6821 13.0215C55.487 13.0215 52.0862 16.4223 52.0862 20.6174C52.0862 24.8124 55.487 28.2132 59.6821 28.2132Z" fill="#CBCBCB"/>
<path d="M72.7036 104.172C76.8986 104.172 80.2994 100.771 80.2994 96.5761C80.2994 92.381 76.8986 88.9802 72.7036 88.9802C68.5085 88.9802 65.1077 92.381 65.1077 96.5761C65.1077 100.771 68.5085 104.172 72.7036 104.172Z" fill="#CBCBCB"/>
<path d="M102.002 59.6819C104.998 59.6819 107.427 57.2527 107.427 54.2562C107.427 51.2598 104.998 48.8306 102.002 48.8306C99.0053 48.8306 96.5762 51.2598 96.5762 54.2562C96.5762 57.2527 99.0053 59.6819 102.002 59.6819Z" fill="#CBCBCB"/>
<path d="M40.1498 88.9802C49.7386 88.9802 57.5118 81.207 57.5118 71.6182C57.5118 62.0294 49.7386 54.2562 40.1498 54.2562C30.5611 54.2562 22.7878 62.0294 22.7878 71.6182C22.7878 81.207 30.5611 88.9802 40.1498 88.9802Z" fill="#CBCBCB"/>
</svg>
