<svg width="414" height="313" viewBox="0 0 414 313" fill="none" xmlns="http://www.w3.org/2000/svg">
<g clip-path="url(#clip0)">
<path d="M396.82 206.756C394.432 227.298 389.47 243.79 382.66 256.944C373.597 274.469 358.096 281.53 344.249 288.919C340.247 291.05 336.087 292.866 331.806 294.351C306.607 303.132 278.405 300.802 256.252 296.166C240.714 292.912 224.942 290.91 209.086 290.179C204.564 289.974 200.037 289.873 195.506 289.874C188.519 289.883 62.7084 292.281 32.0772 230.014C24.5145 214.654 19.3307 195.892 17.4684 173.02C12.1986 108.361 41.1623 65.8939 78.5225 38.1364C149.196 -14.3713 246.07 -12.1693 315.702 41.7215C362.084 77.6184 405.511 131.946 396.82 206.756Z" fill="#3F3D56"/>
<path d="M382.66 256.944C373.598 274.469 361.268 286.08 347.42 293.468C343.419 295.599 339.259 297.416 334.978 298.901C309.779 307.681 281.577 305.352 259.424 300.716C243.886 297.461 228.114 295.459 212.258 294.729C207.736 294.524 203.209 294.422 198.678 294.424C191.69 294.433 184.705 294.694 177.721 295.206C132.331 298.555 62.7084 292.281 32.0771 230.014L108.719 80.9669L137.243 154.499L146.346 177.97L171.436 143.402L184.391 125.554L243.387 193.467L260.062 156.491L375.51 251.088L381.949 256.361L382.66 256.944Z" fill="#F2F2F2"/>
<path opacity="0.1" d="M97.8438 128.738L109.625 102.805L125.938 140.567L111.891 113.269L97.8438 128.738Z" fill="black"/>
<path opacity="0.1" d="M212.258 294.729C207.736 294.524 203.209 294.422 198.678 294.424L146.346 177.97L212.258 294.729Z" fill="black"/>
<path opacity="0.1" d="M171.436 143.401L184.391 133.288L243.297 201.533L183.484 143.297L171.436 143.401Z" fill="black"/>
<path opacity="0.1" d="M347.421 293.468C343.419 295.599 339.259 297.416 334.978 298.901L243.388 193.467L347.421 293.468Z" fill="black"/>
<path d="M179.406 47.7544C180.157 47.7544 180.766 47.1434 180.766 46.3896C180.766 45.6357 180.157 45.0247 179.406 45.0247C178.655 45.0247 178.047 45.6357 178.047 46.3896C178.047 47.1434 178.655 47.7544 179.406 47.7544Z" fill="#F2F2F2"/>
<path d="M141.797 94.616C142.548 94.616 143.156 94.0049 143.156 93.2511C143.156 92.4973 142.548 91.8862 141.797 91.8862C141.046 91.8862 140.438 92.4973 140.438 93.2511C140.438 94.0049 141.046 94.616 141.797 94.616Z" fill="#F2F2F2"/>
<path d="M233.781 102.35C234.282 102.35 234.688 101.943 234.688 101.44C234.688 100.938 234.282 100.531 233.781 100.531C233.281 100.531 232.875 100.938 232.875 101.44C232.875 101.943 233.281 102.35 233.781 102.35Z" fill="#F2F2F2"/>
<path d="M43.4688 122.824C43.9693 122.824 44.375 122.417 44.375 121.914C44.375 121.411 43.9693 121.004 43.4688 121.004C42.9682 121.004 42.5625 121.411 42.5625 121.914C42.5625 122.417 42.9682 122.824 43.4688 122.824Z" fill="#F2F2F2"/>
<path d="M239.219 45.9345C239.719 45.9345 240.125 45.5271 240.125 45.0246C240.125 44.522 239.719 44.1146 239.219 44.1146C238.718 44.1146 238.312 44.522 238.312 45.0246C238.312 45.5271 238.718 45.9345 239.219 45.9345Z" fill="#F2F2F2"/>
<path d="M295.406 89.6114C295.907 89.6114 296.312 89.204 296.312 88.7014C296.312 88.1989 295.907 87.7915 295.406 87.7915C294.906 87.7915 294.5 88.1989 294.5 88.7014C294.5 89.204 294.906 89.6114 295.406 89.6114Z" fill="#F2F2F2"/>
<path d="M350.687 158.766C351.188 158.766 351.594 158.359 351.594 157.856C351.594 157.354 351.188 156.946 350.687 156.946C350.187 156.946 349.781 157.354 349.781 157.856C349.781 158.359 350.187 158.766 350.687 158.766Z" fill="#F2F2F2"/>
<path d="M99.6562 55.152H98.4056V53.8962H97.735V55.152H96.4844V55.8258H97.735V57.081H98.4056V55.8258H99.6562V55.152Z" fill="#F2F2F2"/>
<path d="M345.25 193.007H343.999V191.751H343.329V193.007H342.078V193.681H343.329V194.936H343.999V193.681H345.25V193.007Z" fill="#F2F2F2"/>
<path d="M454 279.332C454 286.871 343.638 313 207.5 313C71.3618 313 -39 286.871 -39 279.332C-39 271.794 71.3618 285.702 207.5 285.702C343.638 285.702 454 271.794 454 279.332Z" fill="#3F3D56"/>
<path opacity="0.1" d="M454 279.332C454 286.871 343.638 313 207.5 313C71.3618 313 -39 286.871 -39 279.332C-39 271.794 71.3618 285.702 207.5 285.702C343.638 285.702 454 271.794 454 279.332Z" fill="black"/>
<path d="M207.5 292.982C343.638 292.982 454 286.871 454 279.332C454 271.794 343.638 265.683 207.5 265.683C71.3618 265.683 -39 271.794 -39 279.332C-39 286.871 71.3618 292.982 207.5 292.982Z" fill="#3F3D56"/>
<path d="M218.375 260.224C218.375 275.3 211.68 271.143 203.422 271.143C195.163 271.143 188.469 275.3 188.469 260.224C188.469 245.148 203.422 216.547 203.422 216.547C203.422 216.547 218.375 245.148 218.375 260.224Z" fill="#FF6584"/>
<path opacity="0.1" d="M210.219 265.992C210.219 272.845 207.176 270.955 203.422 270.955C199.668 270.955 196.625 272.845 196.625 265.992C196.625 259.139 203.422 246.139 203.422 246.139C203.422 246.139 210.219 259.139 210.219 265.992Z" fill="black"/>
<path d="M220.188 275.238H186.656C184.404 275.238 182.578 277.071 182.578 279.332C182.578 281.594 184.404 283.427 186.656 283.427H220.188C222.44 283.427 224.266 281.594 224.266 279.332C224.266 277.071 222.44 275.238 220.188 275.238Z" fill="#2F2E41"/>
<path d="M220.188 267.048H186.656C184.404 267.048 182.578 268.882 182.578 271.143C182.578 273.404 184.404 275.238 186.656 275.238H220.188C222.44 275.238 224.266 273.404 224.266 271.143C224.266 268.882 222.44 267.048 220.188 267.048Z" fill="#2F2E41"/>
<path d="M23.0781 223.174C23.0781 248.353 38.8104 268.728 58.2524 268.728L23.0781 223.174Z" fill="#3F3D56"/>
<path d="M58.2524 268.728C58.2524 243.266 75.8087 222.662 97.5049 222.662L58.2524 268.728Z" fill="#6C63FF"/>
<path d="M35.8224 225.457C35.8224 249.374 45.8546 268.728 58.2524 268.728L35.8224 225.457Z" fill="#6C63FF"/>
<path d="M58.2524 268.728C58.2524 236.193 78.5448 209.866 103.622 209.866L58.2524 268.728Z" fill="#3F3D56"/>
<path d="M50.8527 269.049C50.8527 269.049 55.841 268.895 57.3443 267.82C58.8476 266.745 65.0175 265.462 65.3905 267.186C65.7634 268.909 72.887 275.759 67.2552 275.805C61.6235 275.85 54.1695 274.924 52.6691 274.006C51.1686 273.089 50.8527 269.049 50.8527 269.049Z" fill="#A8A8A8"/>
<path opacity="0.2" d="M67.3557 275.205C61.724 275.25 54.27 274.324 52.7696 273.406C51.6269 272.707 51.1715 270.2 51.0192 269.043C50.9137 269.047 50.8527 269.049 50.8527 269.049C50.8527 269.049 51.1686 273.089 52.6691 274.006C54.1695 274.924 61.6235 275.851 67.2552 275.805C68.8809 275.792 69.4424 275.211 69.4116 274.351C69.1857 274.871 68.5657 275.195 67.3557 275.205Z" fill="black"/>
<path d="M287.897 239.796C287.897 257.098 298.708 271.098 312.067 271.098L287.897 239.796Z" fill="#3F3D56"/>
<path d="M312.067 271.098C312.067 253.602 324.131 239.444 339.04 239.444L312.067 271.098Z" fill="#6C63FF"/>
<path d="M296.655 241.364C296.655 257.799 303.548 271.098 312.068 271.098L296.655 241.364Z" fill="#6C63FF"/>
<path d="M312.067 271.098C312.067 248.742 326.011 230.651 343.243 230.651L312.067 271.098Z" fill="#3F3D56"/>
<path d="M306.983 271.319C306.983 271.319 310.41 271.213 311.444 270.474C312.477 269.736 316.716 268.854 316.972 270.038C317.229 271.223 322.124 275.93 318.254 275.961C314.384 275.992 309.262 275.356 308.231 274.725C307.2 274.094 306.983 271.319 306.983 271.319Z" fill="#A8A8A8"/>
<path opacity="0.2" d="M318.323 275.548C314.453 275.58 309.331 274.943 308.3 274.313C307.515 273.832 307.202 272.109 307.097 271.314C307.025 271.317 306.983 271.319 306.983 271.319C306.983 271.319 307.2 274.094 308.231 274.725C309.262 275.356 314.384 275.992 318.254 275.961C319.371 275.952 319.757 275.553 319.736 274.962C319.58 275.319 319.154 275.542 318.323 275.548Z" fill="black"/>
<path d="M366.009 281.488C366.009 281.488 371.156 280.701 372.579 279.399C374.002 278.097 380.233 275.992 380.834 277.731C381.435 279.469 389.667 285.669 383.84 286.423C378.012 287.178 370.177 287.156 368.508 286.394C366.84 285.632 366.009 281.488 366.009 281.488Z" fill="#A8A8A8"/>
<path opacity="0.2" d="M383.869 285.789C378.042 286.544 370.206 286.521 368.538 285.76C367.267 285.179 366.483 282.639 366.181 281.46C366.072 281.478 366.009 281.488 366.009 281.488C366.009 281.488 366.84 285.632 368.508 286.394C370.177 287.156 378.012 287.178 383.84 286.423C385.522 286.206 386.031 285.533 385.892 284.646C385.723 285.213 385.121 285.627 383.869 285.789Z" fill="black"/>
<path d="M239.336 281.114C239.336 281.114 243.681 280.45 244.882 279.351C246.083 278.252 251.341 276.476 251.848 277.943C252.355 279.41 259.303 284.642 254.385 285.279C249.467 285.916 242.854 285.897 241.446 285.254C240.038 284.611 239.336 281.114 239.336 281.114Z" fill="#A8A8A8"/>
<path opacity="0.2" d="M254.409 284.744C249.491 285.381 242.878 285.362 241.47 284.719C240.398 284.229 239.736 282.086 239.481 281.09C239.39 281.106 239.336 281.114 239.336 281.114C239.336 281.114 240.038 284.611 241.446 285.254C242.854 285.897 249.467 285.916 254.385 285.279C255.804 285.095 256.234 284.528 256.117 283.78C255.974 284.258 255.466 284.607 254.409 284.744Z" fill="black"/>
<path d="M16.4575 278.936C16.4575 278.936 19.8394 278.419 20.7744 277.563C21.7094 276.708 25.8028 275.325 26.1978 276.467C26.5927 277.61 32.0012 281.683 28.1726 282.179C24.344 282.675 19.1957 282.66 18.0995 282.159C17.0034 281.658 16.4575 278.936 16.4575 278.936Z" fill="#A8A8A8"/>
<path opacity="0.2" d="M28.1918 281.762C24.3632 282.258 19.215 282.243 18.1188 281.742C17.284 281.361 16.7687 279.692 16.5703 278.917C16.4989 278.929 16.4575 278.936 16.4575 278.936C16.4575 278.936 17.0033 281.658 18.0995 282.159C19.1958 282.66 24.344 282.675 28.1726 282.179C29.2778 282.035 29.6123 281.594 29.5209 281.011C29.4098 281.383 29.0144 281.655 28.1918 281.762Z" fill="black"/>
<path opacity="0.1" d="M134.862 273.58C134.862 287.329 115.775 283.076 92.4046 283.076C69.0341 283.076 50.2305 287.329 50.2305 273.58C50.2305 259.831 69.3151 256.84 92.6855 256.84C116.056 256.84 134.862 259.831 134.862 273.58Z" fill="black"/>
<path d="M134.862 270.195C134.862 283.944 115.775 279.691 92.4046 279.691C69.0341 279.691 50.2305 283.944 50.2305 270.195C50.2305 256.445 69.3151 253.455 92.6855 253.455C116.056 253.455 134.862 256.445 134.862 270.195Z" fill="#3F3D56"/>
<path d="M138.501 207.202C137.375 207.779 136.305 208.46 135.303 209.236C134.298 210.018 133.529 211.064 133.08 212.259C132.517 210.935 132.057 209.569 131.703 208.173C130.91 205.668 129.97 203.213 128.89 200.818C130.663 200.14 132.2 198.957 133.312 197.414C135.486 199.588 137.722 201.855 138.804 204.739C138.991 205.235 139.533 205.765 139.659 206.21C139.837 206.839 138.976 206.939 138.501 207.202Z" fill="#FFBFC5"/>
<path d="M158.966 260.199C161.342 260.952 163.557 262.142 165.5 263.709C165.646 263.801 165.752 263.945 165.797 264.112C165.846 264.49 165.343 264.644 164.979 264.75C163.906 265.06 163.221 266.071 162.431 266.863C161.642 267.655 160.373 268.276 159.451 267.644C159.209 267.458 158.998 267.234 158.826 266.982L154.933 261.881C156.253 261.14 157.641 260.529 159.077 260.054" fill="#F1F1F1"/>
<path d="M165.963 261.26C166.479 261.788 166.702 262.547 167.208 263.085C167.548 263.41 167.937 263.681 168.36 263.887L171.338 265.533C171.795 265.804 172.277 266.033 172.776 266.215C173.338 266.373 173.909 266.492 174.485 266.574C175.311 266.729 176.118 266.968 176.895 267.288C177.479 267.528 178.13 267.942 178.128 268.575C178.104 268.885 177.978 269.178 177.77 269.407C176.596 270.892 174.518 271.222 172.64 271.421C168.575 271.853 164.415 272.176 160.441 271.214C159.665 271.071 158.932 270.752 158.296 270.282C157.097 269.285 156.859 267.467 157.306 265.969C157.433 265.395 157.771 264.89 158.253 264.556C158.883 264.193 159.667 264.362 160.39 264.306C161.16 264.2 161.905 263.962 162.594 263.601C163.048 263.395 163.571 263.13 163.668 262.587C163.759 262.084 163.17 261.58 163.294 261.13C163.568 260.133 165.488 260.774 165.963 261.26Z" fill="#575A89"/>
<path opacity="0.1" d="M165.963 261.26C166.479 261.788 166.702 262.547 167.208 263.085C167.548 263.41 167.937 263.681 168.36 263.887L171.338 265.533C171.795 265.804 172.277 266.033 172.776 266.215C173.338 266.373 173.909 266.492 174.485 266.574C175.311 266.729 176.118 266.968 176.895 267.288C177.479 267.528 178.13 267.942 178.128 268.575C178.104 268.885 177.978 269.178 177.77 269.407C176.596 270.892 174.518 271.222 172.64 271.421C168.575 271.853 164.415 272.176 160.441 271.214C159.665 271.071 158.932 270.752 158.296 270.282C157.097 269.285 156.859 267.467 157.306 265.969C157.433 265.395 157.771 264.89 158.253 264.556C158.883 264.193 159.667 264.362 160.39 264.306C161.16 264.2 161.905 263.962 162.594 263.601C163.048 263.395 163.571 263.13 163.668 262.587C163.759 262.084 163.17 261.58 163.294 261.13C163.568 260.133 165.488 260.774 165.963 261.26Z" fill="black"/>
<path d="M172.873 277.592C173.29 277.868 173.707 278.145 174.123 278.422C174.507 278.627 174.823 278.939 175.033 279.322C175.304 279.962 174.937 280.686 174.529 281.248C173.305 282.929 171.634 284.229 169.708 285C169.04 285.279 168.334 285.456 167.613 285.524C167.449 285.55 167.28 285.528 167.127 285.463C166.745 285.261 166.8 284.713 166.796 284.28C166.782 283.024 165.837 282.004 164.988 281.081C164.139 280.158 163.273 279.022 163.467 277.781C163.644 277.05 164.017 276.382 164.545 275.85C165.016 275.257 165.568 274.734 166.185 274.297C167.068 273.716 167.38 274.029 168.211 274.561C169.772 275.56 171.326 276.57 172.873 277.592Z" fill="#F1F1F1"/>
<path d="M168.807 283.713C169.147 283.799 169.503 283.804 169.846 283.726C170.188 283.649 170.507 283.491 170.778 283.267C171.315 282.812 171.751 282.25 172.057 281.615C172.361 281.051 172.626 280.465 172.849 279.864C173.111 279.159 173.354 278.381 173.97 277.953C174.717 277.435 175.769 277.638 176.528 278.138C177.244 278.699 177.902 279.331 178.49 280.025C180.068 281.502 181.98 282.57 184.062 283.137C186.134 283.699 188.235 284.15 190.356 284.488C190.78 284.545 191.19 284.678 191.567 284.88C192.419 285.402 192.704 286.567 192.467 287.541C192.166 288.502 191.626 289.37 190.898 290.063C190.325 290.745 189.615 291.298 188.814 291.684C188.136 291.932 187.423 292.068 186.702 292.085C183.21 292.324 179.702 292.048 176.289 291.266C175.035 290.925 173.76 290.669 172.472 290.501C171.686 290.432 170.896 290.454 170.109 290.4C168.545 290.293 167.016 289.888 165.603 289.207C165.259 289.08 164.969 288.838 164.781 288.522C164.68 288.231 164.659 287.918 164.721 287.616L165.242 283.029C165.288 282.63 165.42 282.134 165.815 282.072C166.192 282.013 166.465 282.399 166.702 282.699C167.161 283.251 167.79 283.634 168.49 283.788C169.189 283.941 169.92 283.857 170.567 283.548" fill="#575A89"/>
<path d="M138.564 225.885C140.856 225.625 143.514 225.582 145.064 227.297C146.014 228.349 146.303 229.822 146.632 231.203C147.146 233.522 147.982 235.758 149.115 237.844C149.844 239.136 150.727 240.349 151.287 241.724C151.86 243.133 152.071 244.658 152.406 246.142C153.75 252.008 157.029 257.246 161.712 261.004C160.885 263.262 158.494 264.551 156.168 265.128C155.675 265.338 155.126 265.375 154.609 265.234C154.092 265.093 153.638 264.781 153.319 264.349C152.231 263.169 151.217 261.923 150.284 260.616C146.932 256.121 143.528 251.531 141.701 246.222C141.061 244.36 140.42 242.185 138.617 241.407C137.588 240.963 136.413 241.101 135.309 241.289C132.843 241.709 130.416 242.335 128.053 243.16C125.534 244.04 122.65 245.122 120.344 243.776C118.965 242.971 118.144 241.424 117.841 239.85C117.613 238.262 117.61 236.649 117.834 235.06C117.85 234.341 118.021 233.635 118.338 232.989C118.657 232.507 119.066 232.091 119.543 231.765C121.601 230.195 123.891 228.956 126.33 228.094C128.659 227.269 131.163 226.989 133.593 226.582C135.244 226.305 136.901 226.073 138.564 225.885Z" fill="#575A89"/>
<path opacity="0.1" d="M138.564 225.885C140.856 225.625 143.514 225.582 145.064 227.297C146.014 228.349 146.303 229.822 146.632 231.203C147.146 233.522 147.982 235.758 149.115 237.844C149.844 239.136 150.727 240.349 151.287 241.724C151.86 243.133 152.071 244.658 152.406 246.142C153.75 252.008 157.029 257.246 161.712 261.004C160.885 263.262 158.494 264.551 156.168 265.128C155.675 265.338 155.126 265.375 154.609 265.234C154.092 265.093 153.638 264.781 153.319 264.349C152.231 263.169 151.217 261.923 150.284 260.616C146.932 256.121 143.528 251.531 141.701 246.222C141.061 244.36 140.42 242.185 138.617 241.407C137.588 240.963 136.413 241.101 135.309 241.289C132.843 241.709 130.416 242.335 128.053 243.16C125.534 244.04 122.65 245.122 120.344 243.776C118.965 242.971 118.144 241.424 117.841 239.85C117.613 238.262 117.61 236.649 117.834 235.06C117.85 234.341 118.021 233.635 118.338 232.989C118.657 232.507 119.066 232.091 119.543 231.765C121.601 230.195 123.891 228.956 126.33 228.094C128.659 227.269 131.163 226.989 133.593 226.582C135.244 226.305 136.901 226.073 138.564 225.885Z" fill="black"/>
<path d="M151.684 242.478C152.747 243.017 153.724 243.713 154.58 244.544C155.464 245.59 156.136 246.799 156.557 248.105C156.746 248.54 156.861 249.004 156.899 249.477C156.916 249.714 156.88 249.952 156.792 250.173C156.704 250.393 156.567 250.591 156.392 250.751C155.968 251.025 155.464 251.148 154.962 251.102C154.297 251.107 153.633 251.09 152.969 251.05C152.566 251.047 152.166 250.97 151.789 250.825C151.444 250.648 151.133 250.412 150.87 250.126C149.702 249.037 148.745 247.74 148.048 246.3C147.567 245.235 146.775 242.78 147.532 241.672C148.312 240.53 150.859 242.008 151.684 242.478Z" fill="#FFBFC5"/>
<path d="M119.552 242.098C122.941 243.188 126.549 243.313 130.093 243.645C136.054 244.205 141.942 245.374 147.666 247.133C148.861 247.425 149.987 247.952 150.979 248.682C151.746 249.393 152.394 250.222 152.902 251.137C153.833 252.562 154.676 254.042 155.427 255.571C156.071 256.952 156.561 258.4 157.16 259.801C159.172 264.493 162.354 268.585 166.399 271.683C167.139 272.248 167.962 272.862 168.152 273.775C168.237 274.363 168.141 274.962 167.878 275.494C167.004 277.537 165.19 279.024 163.287 280.161C162.469 280.651 161.568 281.147 161.166 282.014C158.273 280.815 156.123 278.258 154.333 275.681C152.543 273.103 150.955 270.333 148.661 268.195C147.65 267.254 146.502 266.434 145.707 265.303C144.494 263.576 144.166 261.214 142.533 259.882C140.888 258.54 138.529 258.722 136.42 258.93C125.616 259.992 114.73 259.874 103.952 258.577C101.711 258.308 99.4089 257.964 97.4679 256.808C95.5269 255.652 94.0156 253.483 94.2907 251.234C94.5483 249.129 96.2946 247.46 98.2411 246.636C100.188 245.812 102.339 245.664 104.438 245.427C109.59 244.922 114.663 243.805 119.552 242.098Z" fill="#575A89"/>
<path d="M88.5598 246.469C88.8258 244.684 89.5162 242.994 89.9495 241.242C90.1668 240.14 90.4416 239.05 90.773 237.977C90.784 237.947 90.7964 237.917 90.8076 237.887C90.9178 237.878 91.0246 237.844 91.1205 237.789C91.2164 237.734 91.2991 237.659 91.3628 237.568C91.4218 237.412 91.438 237.242 91.4098 237.078C91.4011 236.903 91.4063 236.728 91.4252 236.554C92.1341 235.36 92.9087 234.207 93.7455 233.1C95.2132 231.012 96.4845 228.793 97.7535 226.578C98.7938 224.762 99.8358 222.942 100.697 221.034C101.343 219.603 101.886 218.125 102.6 216.727C105.141 211.751 109.709 208.086 114.621 205.452C119.334 202.926 124.429 201.222 129.383 199.214C129.511 199.339 129.626 199.476 129.729 199.623C132.406 203.297 132.695 208.126 133.797 212.542C134.241 214.325 134.836 216.102 134.835 217.94C134.833 220.653 133.542 223.177 132.258 225.564C131.111 227.846 129.757 230.017 128.212 232.048C127.454 232.99 126.619 233.868 125.857 234.807C122.733 238.652 120.93 243.38 119.176 248.019C118.161 250.705 116.502 253.088 115.386 255.733C114.958 256.75 114.71 257.846 114.171 258.809C113.633 259.771 112.696 260.618 111.596 260.623C111.274 260.614 110.955 260.564 110.646 260.473C106.665 259.445 103.332 256.801 100.024 254.352C99.4339 253.915 98.84 253.482 98.2205 253.087C97.5951 252.689 96.9452 252.331 96.2957 251.974C95.8036 251.703 95.3115 251.433 94.8194 251.162C93.2066 250.274 91.5915 249.386 89.9111 248.635C89.406 248.432 88.9206 248.182 88.4613 247.888C88.4563 247.413 88.4893 246.939 88.5598 246.469Z" fill="#6C63FF"/>
<path d="M140.6 206.897C145.665 206.897 149.771 202.774 149.771 197.688C149.771 192.603 145.665 188.48 140.6 188.48C135.535 188.48 131.429 192.603 131.429 197.688C131.429 202.774 135.535 206.897 140.6 206.897Z" fill="#FFBFC5"/>
<path d="M146.769 193.38C146.991 193.769 147.327 194.08 147.731 194.271C148.135 194.461 148.588 194.522 149.028 194.446C149.465 194.357 149.879 194.177 150.243 193.917C150.606 193.657 150.91 193.323 151.136 192.936C151.582 192.159 151.849 191.291 151.917 190.396C151.988 190.053 151.991 189.699 151.925 189.354C151.86 189.009 151.727 188.681 151.534 188.388C151.193 188.056 150.8 187.78 150.371 187.571C149.781 187.201 149.284 186.697 148.923 186.099C148.666 185.673 148.482 185.208 148.251 184.767C147.417 183.177 145.794 181.883 144.004 181.942C143.145 181.97 142.325 182.298 141.478 182.447C138.635 182.948 135.544 181.437 132.907 182.615C132.258 182.932 131.654 183.336 131.113 183.816C130.371 184.431 129.657 185.079 128.972 185.759C128.377 186.268 127.927 186.926 127.667 187.667C127.309 189.018 128.161 190.527 127.619 191.815C127.433 192.184 127.212 192.533 126.957 192.858C126.359 193.739 127.009 197.179 126.943 198.243C126.867 198.764 126.999 199.295 127.31 199.719C127.743 200.203 128.47 200.245 129.118 200.253L130.309 200.267C130.487 200.28 130.665 200.261 130.837 200.213C131.071 200.108 131.276 199.949 131.436 199.749C132.426 198.701 132.641 195.275 134.079 195.288C134.298 195.276 134.515 195.332 134.7 195.449C134.96 195.641 135.037 195.993 135.222 196.26C135.433 196.51 135.719 196.685 136.037 196.76C136.355 196.835 136.689 196.804 136.988 196.674C137.583 196.398 138.099 195.979 138.493 195.454C138.884 194.929 139.36 194.473 139.899 194.105C140.666 193.656 141.532 193.46 142.278 192.953C142.901 192.529 143.256 191.914 143.816 191.446C144.039 191.252 144.32 191.138 144.615 191.121C144.91 191.105 145.202 191.186 145.446 191.354C146.328 191.816 146.367 192.574 146.769 193.38Z" fill="#2F2E41"/>
<path opacity="0.1" d="M125.579 209.604C127.721 209.298 129.904 209.474 131.97 210.119C132.66 210.277 133.282 210.648 133.751 211.18C134.017 211.583 134.191 212.041 134.259 212.519C134.68 214.721 134.41 217.001 133.485 219.042C133.419 219.144 133.375 219.259 133.357 219.379C133.339 219.499 133.346 219.622 133.378 219.739C133.471 219.881 133.593 220.002 133.735 220.094C133.864 220.219 133.965 220.369 134.032 220.535C134.098 220.702 134.129 220.88 134.122 221.059C134.114 221.239 134.069 221.414 133.99 221.575C133.91 221.735 133.797 221.877 133.659 221.99C133.488 222.115 133.263 222.224 133.23 222.434C133.193 222.663 133.408 222.842 133.574 223.003C133.818 223.243 133.999 223.541 134.098 223.869C134.197 224.197 134.213 224.546 134.143 224.882C134.053 225.152 133.991 225.431 133.959 225.714C133.993 226.061 134.095 226.397 134.258 226.704C134.537 227.397 134.632 228.151 134.534 228.892C134.446 229.243 134.437 229.609 134.509 229.963C134.61 230.197 134.746 230.414 134.914 230.606C135.573 231.498 135.718 232.992 134.762 233.551C135.171 233.762 135.504 234.096 135.716 234.506C135.927 234.916 136.005 235.383 135.94 235.84C136.511 235.534 137.203 235.925 137.679 236.366C138.154 236.807 138.641 237.346 139.287 237.378C139.738 237.401 140.213 237.166 140.624 237.353C141.249 237.636 141.228 238.654 141.843 238.959C142.383 239.227 143.134 238.79 143.594 239.18C143.754 239.316 143.835 239.526 143.99 239.668C144.339 239.989 144.883 239.852 145.356 239.833C145.917 239.849 146.464 240.012 146.942 240.305C147.421 240.599 147.815 241.013 148.085 241.506C148.613 242.5 148.932 243.592 149.021 244.715C149.142 245.325 149.13 245.954 148.986 246.559C148.908 246.86 148.744 247.131 148.514 247.34C148.284 247.548 147.998 247.683 147.692 247.729C142.063 248.095 136.51 246.74 131.03 245.4C129.42 245.007 127.783 244.546 126.44 243.571C125.221 242.686 124.324 241.433 123.449 240.203C121.836 237.936 120.213 235.65 119.059 233.116C117.573 229.855 116.911 226.287 116.262 222.76C116.038 221.815 115.959 220.84 116.026 219.871C116.221 218.737 116.652 217.658 117.293 216.703C118.067 215.438 118.924 214.226 119.857 213.073C121.275 211.25 123.312 210.015 125.579 209.604Z" fill="black"/>
<path d="M125.951 209.231C128.092 208.926 130.275 209.102 132.341 209.746C133.031 209.904 133.653 210.276 134.122 210.807C134.389 211.21 134.562 211.668 134.63 212.147C135.051 214.349 134.781 216.628 133.856 218.669C133.79 218.771 133.747 218.886 133.728 219.006C133.71 219.127 133.717 219.249 133.749 219.367C133.842 219.508 133.964 219.629 134.106 219.722C134.235 219.846 134.336 219.996 134.403 220.162C134.469 220.329 134.5 220.508 134.493 220.687C134.486 220.866 134.441 221.041 134.361 221.202C134.281 221.362 134.168 221.504 134.03 221.617C133.859 221.743 133.634 221.852 133.601 222.062C133.564 222.29 133.779 222.47 133.945 222.63C134.19 222.87 134.37 223.168 134.469 223.496C134.568 223.825 134.584 224.173 134.514 224.509C134.424 224.779 134.362 225.058 134.33 225.342C134.364 225.688 134.466 226.024 134.629 226.332C134.908 227.025 135.003 227.779 134.905 228.52C134.817 228.87 134.808 229.236 134.88 229.59C134.981 229.824 135.117 230.041 135.285 230.233C135.944 231.126 136.089 232.619 135.133 233.179C135.542 233.39 135.876 233.723 136.087 234.134C136.298 234.544 136.376 235.01 136.311 235.467C136.882 235.161 137.574 235.552 138.05 235.993C138.526 236.434 139.012 236.973 139.658 237.006C140.109 237.028 140.584 236.793 140.995 236.98C141.62 237.263 141.599 238.281 142.214 238.587C142.754 238.854 143.505 238.417 143.965 238.807C144.125 238.943 144.206 239.153 144.361 239.295C144.71 239.616 145.255 239.479 145.727 239.461C146.288 239.476 146.835 239.639 147.313 239.933C147.792 240.226 148.186 240.64 148.456 241.133C148.984 242.127 149.303 243.219 149.392 244.342C149.513 244.952 149.501 245.581 149.357 246.186C149.279 246.487 149.115 246.759 148.885 246.967C148.655 247.175 148.369 247.311 148.063 247.357C142.435 247.722 136.881 246.367 131.401 245.028C129.791 244.634 128.154 244.174 126.812 243.199C125.592 242.313 124.695 241.06 123.82 239.831C122.207 237.563 120.584 235.278 119.43 232.744C117.945 229.482 117.282 225.914 116.633 222.387C116.409 221.442 116.33 220.468 116.397 219.498C116.592 218.365 117.023 217.285 117.664 216.331C118.438 215.066 119.295 213.853 120.228 212.701C121.646 210.878 123.683 209.642 125.951 209.231Z" fill="#6C63FF"/>
</g>
<defs>
<clipPath id="clip0">
<rect width="493" height="313" fill="white" transform="translate(-39)"/>
</clipPath>
</defs>
</svg>
